<?xml version="1.0" standalone="no"?>
<!DOCTYPE svg PUBLIC "-//W3C//DTD SVG 20010904//EN"
 "http://www.w3.org/TR/2001/REC-SVG-20010904/DTD/svg10.dtd">
<svg version="1.0" xmlns="http://www.w3.org/2000/svg"
 width="512.000000pt" height="512.000000pt" viewBox="0 0 512.000000 512.000000"
 preserveAspectRatio="xMidYMid meet">
<metadata>
Created by potrace 1.11, written by Peter Selinger 2001-2013
</metadata>
<g transform="translate(0.000000,512.000000) scale(0.100000,-0.100000)"
fill="#000000" stroke="none">
<path d="M2860 4920 c-8 -4 -53 -8 -100 -8 -47 -1 -101 -4 -120 -7 -29 -6
-219 -16 -270 -15 -65 2 -103 -2 -127 -11 -28 -12 -64 -20 -93 -21 -8 0 -20
-5 -27 -10 -6 -5 -24 -11 -40 -14 -29 -5 -33 -6 -115 -44 -25 -11 -57 -23 -70
-25 -57 -11 -67 -14 -89 -27 -13 -7 -27 -18 -31 -24 -4 -7 -19 -15 -33 -18
-13 -3 -41 -17 -61 -31 -20 -13 -52 -28 -73 -31 -45 -9 -80 -31 -91 -59 -9
-23 -113 -80 -129 -70 -6 3 -11 2 -11 -3 0 -6 -15 -15 -32 -21 -18 -6 -51 -32
-75 -56 -23 -24 -63 -54 -90 -66 -30 -13 -58 -35 -75 -60 -22 -30 -34 -39 -57
-39 -22 0 -31 -6 -37 -22 -8 -28 -36 -55 -67 -67 -27 -10 -87 -5 -101 9 -15
15 -194 13 -212 -2 -41 -33 -65 -59 -61 -66 3 -4 8 -25 11 -47 4 -22 14 -45
22 -52 14 -10 10 -16 -30 -44 -25 -18 -46 -36 -46 -39 0 -3 -12 -7 -26 -8 -40
-3 -62 -34 -59 -86 3 -50 0 -57 -38 -74 -15 -6 -32 -23 -39 -37 -6 -14 -14
-25 -18 -25 -4 0 -8 -23 -9 -51 -1 -28 -6 -60 -12 -70 -5 -10 -6 -19 -2 -19 4
0 -1 -7 -11 -15 -15 -12 -18 -22 -13 -58 11 -77 -1 -110 -58 -172 -39 -42 -52
-63 -49 -78 23 -102 25 -232 4 -287 -10 -27 -16 -63 -13 -90 2 -25 3 -97 2
-160 -2 -162 4 -335 11 -335 2 0 4 -22 6 -50 6 -96 5 -157 -4 -169 -5 -6 -8
-20 -6 -31 3 -11 6 -36 8 -56 1 -20 7 -42 12 -50 12 -20 15 -36 19 -119 5 -87
10 -135 20 -170 12 -41 7 -306 -9 -465 -1 -16 2 -41 7 -55 5 -14 10 -36 11
-50 1 -14 8 -35 15 -48 6 -12 10 -22 7 -22 -3 0 0 -15 5 -32 6 -18 11 -55 13
-83 1 -27 10 -65 20 -83 9 -17 14 -32 10 -32 -4 0 -1 -7 6 -15 7 -8 10 -15 7
-15 -3 0 1 -23 9 -52 19 -62 24 -84 30 -121 4 -30 27 -60 38 -50 3 4 6 -1 6
-10 0 -9 9 -22 20 -29 11 -7 20 -18 20 -25 0 -16 67 -83 74 -75 3 3 6 -3 6
-12 0 -19 37 -55 58 -56 6 0 12 -4 12 -8 0 -5 20 -6 45 -2 33 5 54 16 80 43
39 40 55 41 112 7 19 -11 41 -20 49 -20 8 0 14 -4 14 -10 0 -5 8 -10 18 -10
10 0 23 -5 29 -11 6 -6 27 -11 48 -11 20 0 34 -2 31 -5 -6 -7 19 -33 32 -33 5
0 15 -6 21 -14 6 -7 21 -12 34 -11 12 1 38 -5 57 -13 19 -8 59 -15 88 -17 37
-2 57 -8 66 -20 7 -10 19 -15 27 -13 8 3 21 2 29 -3 9 -4 36 -10 60 -14 25 -4
48 -9 52 -11 5 -3 8 0 8 5 0 13 22 10 32 -3 4 -6 13 -5 22 3 18 15 154 19 164
6 16 -23 95 -21 167 3 33 11 62 17 65 14 3 -4 12 -8 20 -8 22 -2 44 -8 50 -14
16 -17 58 -27 74 -18 9 5 24 7 32 4 20 -8 115 14 109 24 -3 5 5 6 17 3 35 -8
68 -5 93 8 6 3 39 6 74 8 39 1 79 10 102 21 20 11 39 16 43 13 3 -4 6 -2 6 4
0 6 8 9 19 6 10 -3 22 0 25 6 4 5 13 8 20 5 8 -3 17 -1 20 5 4 6 13 8 20 5 8
-3 17 0 21 5 3 6 11 9 16 6 5 -4 9 -1 9 4 0 6 9 11 20 11 21 0 44 32 32 46 -4
5 1 2 11 -5 16 -13 22 -8 18 13 -1 5 5 6 12 3 8 -3 20 0 27 6 9 9 11 9 7 1 -5
-8 2 -11 18 -10 14 0 25 3 25 6 0 3 12 7 26 8 28 2 84 38 84 53 0 6 4 8 9 4 7
-4 62 56 66 72 0 1 11 4 25 8 27 6 76 -28 65 -46 -4 -5 3 -9 15 -9 11 0 23 -6
26 -14 13 -33 97 2 115 48 7 17 21 39 31 49 11 11 18 32 18 55 0 49 8 58 47
56 31 -1 42 9 49 46 2 8 13 23 26 33 48 37 88 72 88 78 0 4 18 26 39 50 38 41
43 43 98 44 33 1 65 5 73 10 7 5 35 7 61 6 39 -2 50 2 65 21 11 13 30 31 44
41 13 9 20 17 15 17 -10 0 54 44 65 45 3 0 16 10 29 22 17 15 22 29 19 47 -4
19 3 33 27 56 22 21 31 39 29 56 -1 14 3 24 11 24 7 0 18 6 25 14 6 8 17 13
24 10 6 -2 22 5 34 16 20 19 24 27 21 47 0 3 6 10 15 15 9 5 16 16 16 23 0 16
1 16 38 20 13 1 28 9 35 17 27 34 83 65 108 62 30 -5 63 20 74 55 12 37 45 89
61 95 10 4 13 2 7 -7 -4 -6 4 -4 19 5 14 9 47 18 74 20 30 2 49 8 50 16 1 6 2
15 3 18 2 9 31 -23 31 -34 0 -17 28 -22 40 -7 6 7 12 24 13 37 2 13 8 33 14
44 7 12 9 24 6 28 -4 3 -8 29 -9 57 -1 30 -8 55 -15 60 -17 10 -20 115 -5 144
11 22 15 38 20 76 2 15 7 33 12 40 18 30 29 197 13 215 -6 8 -8 14 -5 14 4 0
-5 22 -19 48 -16 29 -28 69 -30 98 -2 27 -4 49 -5 49 -2 0 -5 15 -13 56 -3 15
-17 45 -31 68 -14 22 -26 47 -26 55 0 7 -7 19 -15 26 -11 9 -14 23 -9 46 3 18
2 39 -2 46 -5 7 -9 22 -9 33 -1 36 -25 109 -56 172 -32 63 -38 115 -23 173 13
49 5 101 -18 119 -20 17 -20 21 -9 50 8 17 17 31 22 31 5 0 6 7 3 15 -4 8 -3
23 1 33 12 26 15 44 17 84 1 20 5 35 8 33 8 -5 -3 65 -19 123 -6 23 -16 42
-21 42 -6 0 -10 6 -10 14 0 8 -9 18 -20 21 -11 3 -20 13 -20 21 0 8 -4 14 -10
14 -5 0 -10 6 -10 13 0 6 -12 23 -25 36 -14 12 -23 26 -20 31 6 9 -62 80 -76
80 -13 0 -39 25 -39 38 0 11 -43 52 -55 52 -5 0 -27 19 -50 43 -22 24 -48 46
-58 50 -9 3 -17 12 -17 20 0 7 -14 21 -31 31 -30 18 -95 25 -256 29 -49 2 -65
6 -77 22 -9 11 -16 26 -16 33 0 6 -8 12 -17 12 -10 0 -30 6 -44 14 -14 7 -42
16 -62 20 -23 4 -37 13 -37 21 0 14 -12 19 -32 16 -5 0 -8 4 -8 9 0 6 -7 10
-15 10 -8 0 -15 5 -15 11 0 6 -7 9 -15 5 -8 -3 -15 -1 -15 4 0 6 -3 9 -7 9
-22 -4 -35 3 -45 26 -6 13 -19 27 -30 30 -10 4 -18 13 -18 21 0 8 -5 14 -10
14 -6 0 -10 16 -8 35 1 25 -4 40 -20 55 -12 12 -22 27 -22 35 0 24 -37 54 -60
50 -13 -2 -20 1 -20 11 0 9 -10 14 -27 14 -32 0 -113 29 -113 41 0 4 -21 18
-47 31 -26 13 -61 35 -77 51 -16 15 -36 28 -45 29 -16 1 -32 4 -41 8 -33 12
-124 19 -140 10z"/>
</g>
</svg>
